<?xml version="1.0" encoding="UTF-8" standalone="no"?>
<!-- Created with Inkscape (http://www.inkscape.org/) -->

<svg
   width="16"
   height="16"
   viewBox="0 0 16 16"
   version="1.1"
   id="svg5"
   sodipodi:docname="E000.svg"
   inkscape:version="1.1.1 (3bf5ae0d25, 2021-09-20, custom)"
   inkscape:export-filename="/mnt/data/Files/Projects/Programming/InfDev/Skydale/Icons/E000.png"
   inkscape:export-xdpi="96"
   inkscape:export-ydpi="96"
   xmlns:inkscape="http://www.inkscape.org/namespaces/inkscape"
   xmlns:sodipodi="http://sodipodi.sourceforge.net/DTD/sodipodi-0.dtd"
   xmlns="http://www.w3.org/2000/svg"
   xmlns:svg="http://www.w3.org/2000/svg">
  <sodipodi:namedview
     id="namedview7"
     pagecolor="#505050"
     bordercolor="#eeeeee"
     borderopacity="1"
     inkscape:pageshadow="0"
     inkscape:pageopacity="0"
     inkscape:pagecheckerboard="0"
     inkscape:document-units="px"
     showgrid="false"
     inkscape:zoom="16"
     inkscape:cx="-2.59375"
     inkscape:cy="14.28125"
     inkscape:window-width="1920"
     inkscape:window-height="1011"
     inkscape:window-x="0"
     inkscape:window-y="0"
     inkscape:window-maximized="1"
     inkscape:current-layer="layer1"
     inkscape:snap-page="true"
     inkscape:snap-text-baseline="true"
     inkscape:snap-center="true"
     inkscape:snap-object-midpoints="true"
     inkscape:snap-midpoints="true"
     inkscape:snap-smooth-nodes="true"
     inkscape:object-paths="true"
     inkscape:snap-intersection-paths="true" />
  <defs
     id="defs2">
    <clipPath
       clipPathUnits="userSpaceOnUse"
       id="clipPath41043">
      <path
         id="path41045"
         style="opacity:1;fill:#010201;fill-opacity:1;stroke:none;stroke-width:1.40269px;stroke-linecap:butt;stroke-linejoin:miter;stroke-opacity:1"
         d="M 3.0109219,0 C 2.6159015,0.08297419 2.0948287,0.45113428 1.9778283,1.0609988 2.2024325,3.0062028 5.0321971,5.2328716 5.3781303,7.7414567 4.2014692,9.9919584 0.08879528,9.8596265 0,12.146029 0.1585373,13.720298 0.65283085,14.935543 1.8558876,16 1.081991,14.353556 1.8179058,13.610296 2.8589444,13.085985 c 1.2015359,-0.605144 3.8564542,0.130257 6.8221098,0.443323 2.5617038,0.67267 3.7818758,-1.069948 3.7818758,-1.069948 -1.928082,-0.691067 -2.444805,-0.943127 -3.008361,-1.597897 0.365069,-0.497991 2.82044,0.859657 3.972434,0.827044 0.486809,-0.01379 1.673234,-0.916964 1.014411,-1.094572 C 9.4390355,8.9757675 9.3730506,7.3164876 9.3730506,7.3164876 9.3414075,7.1556821 15.939219,10.42758 16,8.1234616 14.028498,3.0282899 6.5531743,0.19559569 3.0109219,0 Z m 3.3580283,1.2726924 c 0,0 7.5914798,3.1263572 8.6822158,5.8543646 C 16.141903,9.8550635 10.345715,7.0772393 11.768134,6.6338672 13.190553,6.1904943 6.3689502,1.2726924 6.3689502,1.2726924 Z"
         sodipodi:nodetypes="cccccscccscccccssc" />
    </clipPath>
    <clipPath
       clipPathUnits="userSpaceOnUse"
       id="clipPath43160">
      <path
         id="path43162"
         style="opacity:1;fill:#010201;fill-opacity:1;stroke:none;stroke-width:1.40269px;stroke-linecap:butt;stroke-linejoin:miter;stroke-opacity:1"
         d="M 3.0109219,0 C 2.6159015,0.08297419 2.0948287,0.45113428 1.9778283,1.0609988 2.2024325,3.0062028 5.0321971,5.2328716 5.3781303,7.7414567 4.2014692,9.9919584 0.08879528,9.8596265 0,12.146029 0.1585373,13.720298 0.65283085,14.935543 1.8558876,16 1.081991,14.353556 1.8179058,13.610296 2.8589444,13.085985 c 1.2015359,-0.605144 3.8564542,0.130257 6.8221098,0.443323 2.5617038,0.67267 3.7818758,-1.069948 3.7818758,-1.069948 -1.928082,-0.691067 -2.444805,-0.943127 -3.008361,-1.597897 0.365069,-0.497991 2.82044,0.859657 3.972434,0.827044 0.486809,-0.01379 1.673234,-0.916964 1.014411,-1.094572 C 9.4390355,8.9757675 9.3730506,7.3164876 9.3730506,7.3164876 9.3414075,7.1556821 15.939219,10.42758 16,8.1234616 14.028498,3.0282899 6.5531743,0.19559569 3.0109219,0 Z m 3.3580283,1.2726924 c 0,0 7.5914798,3.1263572 8.6822158,5.8543646 C 16.141903,9.8550635 10.345715,7.0772393 11.768134,6.6338672 13.190553,6.1904943 6.3689502,1.2726924 6.3689502,1.2726924 Z"
         sodipodi:nodetypes="cccccscccscccccssc" />
    </clipPath>
    <clipPath
       clipPathUnits="userSpaceOnUse"
       id="clipPath46454">
      <path
         id="path46456"
         style="opacity:1;fill:#010201;fill-opacity:1;stroke:none;stroke-width:1.40269px;stroke-linecap:butt;stroke-linejoin:miter;stroke-opacity:1"
         d="M 3.0109219,0 C 2.6159015,0.08297419 2.0948287,0.45113428 1.9778283,1.0609988 2.2024325,3.0062028 5.0321971,5.2328716 5.3781303,7.7414567 4.2014692,9.9919584 0.08879528,9.8596265 0,12.146029 0.1585373,13.720298 0.65283085,14.935543 1.8558876,16 1.081991,14.353556 1.8179058,13.610296 2.8589444,13.085985 c 1.2015359,-0.605144 3.8564542,0.130257 6.8221098,0.443323 2.5617038,0.67267 3.7818758,-1.069948 3.7818758,-1.069948 -1.928082,-0.691067 -2.444805,-0.943127 -3.008361,-1.597897 0.365069,-0.497991 2.82044,0.859657 3.972434,0.827044 0.486809,-0.01379 1.673234,-0.916964 1.014411,-1.094572 C 9.4390355,8.9757675 9.3730506,7.3164876 9.3730506,7.3164876 9.3414075,7.1556821 15.939219,10.42758 16,8.1234616 14.028498,3.0282899 6.5531743,0.19559569 3.0109219,0 Z m 3.3580283,1.2726924 c 0,0 7.5914798,3.1263572 8.6822158,5.8543646 C 16.141903,9.8550635 10.345715,7.0772393 11.768134,6.6338672 13.190553,6.1904943 6.3689502,1.2726924 6.3689502,1.2726924 Z"
         sodipodi:nodetypes="cccccscccscccccssc" />
    </clipPath>
    <clipPath
       clipPathUnits="userSpaceOnUse"
       id="clipPath46539">
      <path
         id="path46541"
         style="opacity:1;fill:#010201;fill-opacity:1;stroke:none;stroke-width:1.40269px;stroke-linecap:butt;stroke-linejoin:miter;stroke-opacity:1"
         d="M 3.0109219,0 C 2.6159015,0.08297419 2.0948287,0.45113428 1.9778283,1.0609988 2.2024325,3.0062028 5.0321971,5.2328716 5.3781303,7.7414567 4.2014692,9.9919584 0.08879528,9.8596265 0,12.146029 0.1585373,13.720298 0.65283085,14.935543 1.8558876,16 1.081991,14.353556 1.8179058,13.610296 2.8589444,13.085985 c 1.2015359,-0.605144 3.8564542,0.130257 6.8221098,0.443323 2.5617038,0.67267 3.7818758,-1.069948 3.7818758,-1.069948 -1.928082,-0.691067 -2.444805,-0.943127 -3.008361,-1.597897 0.365069,-0.497991 2.82044,0.859657 3.972434,0.827044 0.486809,-0.01379 1.673234,-0.916964 1.014411,-1.094572 C 9.4390355,8.9757675 9.3730506,7.3164876 9.3730506,7.3164876 9.3414075,7.1556821 15.939219,10.42758 16,8.1234616 14.028498,3.0282899 6.5531743,0.19559569 3.0109219,0 Z m 3.3580283,1.2726924 c 0,0 7.5914798,3.1263572 8.6822158,5.8543646 C 16.141903,9.8550635 10.345715,7.0772393 11.768134,6.6338672 13.190553,6.1904943 6.3689502,1.2726924 6.3689502,1.2726924 Z"
         sodipodi:nodetypes="cccccscccscccccssc" />
    </clipPath>
    <clipPath
       clipPathUnits="userSpaceOnUse"
       id="clipPath46544">
      <path
         id="path46546"
         style="opacity:1;fill:#010201;fill-opacity:1;stroke:none;stroke-width:1.40269px;stroke-linecap:butt;stroke-linejoin:miter;stroke-opacity:1"
         d="M 3.0109219,0 C 2.6159015,0.08297419 2.0948287,0.45113428 1.9778283,1.0609988 2.2024325,3.0062028 5.0321971,5.2328716 5.3781303,7.7414567 4.2014692,9.9919584 0.08879528,9.8596265 0,12.146029 0.1585373,13.720298 0.65283085,14.935543 1.8558876,16 1.081991,14.353556 1.8179058,13.610296 2.8589444,13.085985 c 1.2015359,-0.605144 3.8564542,0.130257 6.8221098,0.443323 2.5617038,0.67267 3.7818758,-1.069948 3.7818758,-1.069948 -1.928082,-0.691067 -2.444805,-0.943127 -3.008361,-1.597897 0.365069,-0.497991 2.82044,0.859657 3.972434,0.827044 0.486809,-0.01379 1.673234,-0.916964 1.014411,-1.094572 C 9.4390355,8.9757675 9.3730506,7.3164876 9.3730506,7.3164876 9.3414075,7.1556821 15.939219,10.42758 16,8.1234616 14.028498,3.0282899 6.5531743,0.19559569 3.0109219,0 Z m 3.3580283,1.2726924 c 0,0 7.5914798,3.1263572 8.6822158,5.8543646 C 16.141903,9.8550635 10.345715,7.0772393 11.768134,6.6338672 13.190553,6.1904943 6.3689502,1.2726924 6.3689502,1.2726924 Z"
         sodipodi:nodetypes="cccccscccscccccssc" />
    </clipPath>
  </defs>
  <g
     inkscape:groupmode="layer"
     id="layer1"
     inkscape:label="Layer 1"
     style="display:inline">
    <path
       id="rect21365"
       clip-path="url(#clipPath41043)"
       style="display:inline;opacity:1;fill:#ffd683;stroke-width:1.06719;paint-order:stroke markers fill;fill-opacity:1"
       d="M -1.2463256,4.43999 H 18.395114 V 16.598396 H -1.2463256 Z" />
    <path
       style="display:inline;fill:#fff8a0;fill-opacity:1;stroke:none;stroke-width:1px;stroke-linecap:butt;stroke-linejoin:miter;stroke-opacity:1"
       d="M 7.6406757,11.165313 C 13.024741,12.264939 19.88427,6.2768905 19.875053,6.2828238 L 14.04711,5.1421352 -0.82180598,4.4729463 C -4.7979199,15.573891 -14.578011,6.9601715 2.4725989,9.7121268 3.5621113,9.8879733 6.3272035,10.897053 7.6406757,11.165313 Z"
       id="path18978"
       clip-path="url(#clipPath46539)"
       sodipodi:nodetypes="scccss" />
    <path
       style="fill:#ffe494;fill-opacity:1;stroke:none;stroke-width:1px;stroke-linecap:butt;stroke-linejoin:miter;stroke-opacity:1"
       d="M 9.8299545,0.30436665 6.796335,-0.76774405 C 4.1726647,-2.1875416 6.2155792,0.25332712 4.0709176,1.8950789 2.8498063,2.8298472 -0.11107222,4.7877301 4.5200319,6.436577 3.7069943,5.4067341 9.5320104,12.272397 13.708186,7.3865072 14.499054,6.461236 11.083309,12.074612 15.865135,4.43999 Z"
       id="path23009"
       clip-path="url(#clipPath46454)"
       sodipodi:nodetypes="ccscscc" />
    <path
       style="fill:#fff9b3;fill-opacity:1;stroke:none;stroke-width:1px;stroke-linecap:butt;stroke-linejoin:miter;stroke-opacity:1"
       d="M 2.4827536,-1.635954 C 20.310298,-15.18319 14.69376,16.388419 0,1.2342496 -45.241993,-45.425338 3.5273195,-4.0617876 3.5273195,-4.0617876 4.3727508,-3.6872744 -11.457687,-8.2678012 2.4827536,-1.635954 Z"
       id="path27825"
       clip-path="url(#clipPath46544)"
       sodipodi:nodetypes="cscc" />
  </g>
</svg>
