<?xml version="1.0" encoding="UTF-8" standalone="no"?>
<!-- Created with Inkscape (http://www.inkscape.org/) -->

<svg
   width="16"
   height="16"
   viewBox="0 0 16 16"
   version="1.1"
   id="svg5"
   sodipodi:docname="E002.svg"
   inkscape:version="1.1.1 (3bf5ae0d25, 2021-09-20, custom)"
   inkscape:export-filename="/mnt/data/Files/Projects/Programming/InfDev/Skydale/Icons/E002.png"
   inkscape:export-xdpi="96"
   inkscape:export-ydpi="96"
   xmlns:inkscape="http://www.inkscape.org/namespaces/inkscape"
   xmlns:sodipodi="http://sodipodi.sourceforge.net/DTD/sodipodi-0.dtd"
   xmlns="http://www.w3.org/2000/svg"
   xmlns:svg="http://www.w3.org/2000/svg">
  <sodipodi:namedview
     id="namedview7"
     pagecolor="#505050"
     bordercolor="#eeeeee"
     borderopacity="1"
     inkscape:pageshadow="0"
     inkscape:pageopacity="0"
     inkscape:pagecheckerboard="0"
     inkscape:document-units="px"
     showgrid="false"
     inkscape:zoom="12.926624"
     inkscape:cx="-10.211483"
     inkscape:cy="3.9840255"
     inkscape:window-width="1920"
     inkscape:window-height="1011"
     inkscape:window-x="0"
     inkscape:window-y="0"
     inkscape:window-maximized="1"
     inkscape:current-layer="layer1"
     inkscape:snap-page="true"
     inkscape:snap-text-baseline="true"
     inkscape:snap-center="true"
     inkscape:snap-object-midpoints="true"
     inkscape:snap-midpoints="true"
     inkscape:snap-smooth-nodes="true"
     inkscape:object-paths="true"
     inkscape:snap-intersection-paths="true"
     inkscape:snap-bbox="true"
     inkscape:bbox-paths="true"
     inkscape:bbox-nodes="true"
     inkscape:snap-bbox-edge-midpoints="true"
     inkscape:snap-nodes="true"
     inkscape:snap-bbox-midpoints="true"
     inkscape:snap-others="true"
     inkscape:object-nodes="true" />
  <defs
     id="defs2">
    <clipPath
       clipPathUnits="userSpaceOnUse"
       id="clipPath43160">
      <path
         id="path43162"
         style="opacity:1;fill:#010201;fill-opacity:1;stroke:none;stroke-width:1.40269px;stroke-linecap:butt;stroke-linejoin:miter;stroke-opacity:1"
         d="M 3.0109219,0 C 2.6159015,0.08297419 2.0948287,0.45113428 1.9778283,1.0609988 2.2024325,3.0062028 5.0321971,5.2328716 5.3781303,7.7414567 4.2014692,9.9919584 0.08879528,9.8596265 0,12.146029 0.1585373,13.720298 0.65283085,14.935543 1.8558876,16 1.081991,14.353556 1.8179058,13.610296 2.8589444,13.085985 c 1.2015359,-0.605144 3.8564542,0.130257 6.8221098,0.443323 2.5617038,0.67267 3.7818758,-1.069948 3.7818758,-1.069948 -1.928082,-0.691067 -2.444805,-0.943127 -3.008361,-1.597897 0.365069,-0.497991 2.82044,0.859657 3.972434,0.827044 0.486809,-0.01379 1.673234,-0.916964 1.014411,-1.094572 C 9.4390355,8.9757675 9.3730506,7.3164876 9.3730506,7.3164876 9.3414075,7.1556821 15.939219,10.42758 16,8.1234616 14.028498,3.0282899 6.5531743,0.19559569 3.0109219,0 Z m 3.3580283,1.2726924 c 0,0 7.5914798,3.1263572 8.6822158,5.8543646 C 16.141903,9.8550635 10.345715,7.0772393 11.768134,6.6338672 13.190553,6.1904943 6.3689502,1.2726924 6.3689502,1.2726924 Z"
         sodipodi:nodetypes="cccccscccscccccssc" />
    </clipPath>
    <clipPath
       clipPathUnits="userSpaceOnUse"
       id="clipPath67951">
      <path
         style="display:inline;fill:#000000;fill-opacity:1;stroke:none;stroke-width:0.991816px;stroke-linecap:butt;stroke-linejoin:miter;stroke-opacity:1"
         d="M 15.979959,6.9042838 C 16.299069,11.455853 12.775215,16.31465 7.6995059,15.984019 4.1259168,15.920328 0.1560796,11.533596 -5.782521e-6,8.0377755 -0.15609116,4.541956 3.6835369,0.76016242 6.3368043,0.22509858 16.405244,-1.8053255 16.267622,10.678966 7.495225,6.5330897 9.807548,5.8729502 10.86377,5.9932182 11.770321,4.0924791 -3.3947435,-1.1230965 4.1748896,21.638987 15.979959,6.9042838 Z"
         id="path67953"
         sodipodi:nodetypes="cczsccc" />
    </clipPath>
    <clipPath
       clipPathUnits="userSpaceOnUse"
       id="clipPath67955">
      <path
         style="display:inline;fill:#000000;fill-opacity:1;stroke:none;stroke-width:0.991816px;stroke-linecap:butt;stroke-linejoin:miter;stroke-opacity:1"
         d="M 15.979959,6.9042838 C 16.299069,11.455853 12.775215,16.31465 7.6995059,15.984019 4.1259168,15.920328 0.1560796,11.533596 -5.782521e-6,8.0377755 -0.15609116,4.541956 3.6835369,0.76016242 6.3368043,0.22509858 16.405244,-1.8053255 16.267622,10.678966 7.495225,6.5330897 9.807548,5.8729502 10.86377,5.9932182 11.770321,4.0924791 -3.3947435,-1.1230965 4.1748896,21.638987 15.979959,6.9042838 Z"
         id="path67957"
         sodipodi:nodetypes="cczsccc" />
    </clipPath>
    <clipPath
       clipPathUnits="userSpaceOnUse"
       id="clipPath67959">
      <path
         style="display:inline;fill:#000000;fill-opacity:1;stroke:none;stroke-width:0.991816px;stroke-linecap:butt;stroke-linejoin:miter;stroke-opacity:1"
         d="M 15.979959,6.9042838 C 16.299069,11.455853 12.775215,16.31465 7.6995059,15.984019 4.1259168,15.920328 0.1560796,11.533596 -5.782521e-6,8.0377755 -0.15609116,4.541956 3.6835369,0.76016242 6.3368043,0.22509858 16.405244,-1.8053255 16.267622,10.678966 7.495225,6.5330897 9.807548,5.8729502 10.86377,5.9932182 11.770321,4.0924791 -3.3947435,-1.1230965 4.1748896,21.638987 15.979959,6.9042838 Z"
         id="path67961"
         sodipodi:nodetypes="cczsccc" />
    </clipPath>
    <clipPath
       clipPathUnits="userSpaceOnUse"
       id="clipPath67963">
      <path
         style="display:inline;fill:#000000;fill-opacity:1;stroke:none;stroke-width:0.991816px;stroke-linecap:butt;stroke-linejoin:miter;stroke-opacity:1"
         d="M 15.979959,6.9042838 C 16.299069,11.455853 12.775215,16.31465 7.6995059,15.984019 4.1259168,15.920328 0.1560796,11.533596 -5.782521e-6,8.0377755 -0.15609116,4.541956 3.6835369,0.76016242 6.3368043,0.22509858 16.405244,-1.8053255 16.267622,10.678966 7.495225,6.5330897 9.807548,5.8729502 10.86377,5.9932182 11.770321,4.0924791 -3.3947435,-1.1230965 4.1748896,21.638987 15.979959,6.9042838 Z"
         id="path67965"
         sodipodi:nodetypes="cczsccc" />
    </clipPath>
    <clipPath
       clipPathUnits="userSpaceOnUse"
       id="clipPath67967">
      <path
         style="display:inline;fill:#000000;fill-opacity:1;stroke:none;stroke-width:0.991816px;stroke-linecap:butt;stroke-linejoin:miter;stroke-opacity:1"
         d="M 15.979959,6.9042838 C 16.299069,11.455853 12.775215,16.31465 7.6995059,15.984019 4.1259168,15.920328 0.1560796,11.533596 -5.782521e-6,8.0377755 -0.15609116,4.541956 3.6835369,0.76016242 6.3368043,0.22509858 16.405244,-1.8053255 16.267622,10.678966 7.495225,6.5330897 9.807548,5.8729502 10.86377,5.9932182 11.770321,4.0924791 -3.3947435,-1.1230965 4.1748896,21.638987 15.979959,6.9042838 Z"
         id="path67969"
         sodipodi:nodetypes="cczsccc" />
    </clipPath>
    <clipPath
       clipPathUnits="userSpaceOnUse"
       id="clipPath15934">
      <path
         style="fill:#000000;fill-opacity:1;stroke:none;stroke-width:1.36454px;stroke-linecap:butt;stroke-linejoin:miter;stroke-opacity:1"
         d="M 13.401274,9.5388098 C 14.569685,8.2331678 13.891817,5.1058742 13.891817,5.1058742 20.350389,13.505655 9.9083719,15.936476 9.9083719,15.936476 13.54082,12.983236 8.3519527,7.6916984 8.3519527,7.6916984 5.4344193,8.0101498 6.5459336,11.992274 6.5727525,12.846781 6.5861968,13.275144 4.895773,10.78282 4.895773,10.78282 3.5146953,13.61247 6.912042,16 6.912042,16 0.37564024,14.922915 -0.65961815,10.100886 0.31683931,6.9622583 0.74623225,5.582061 2.9408592,3.6630669 2.9015366,3.9921924 2.3922669,8.2547055 4.340155,7.3807213 4.4033411,7.2446235 5.0071357,3.5838377 5.6334035,0.69225987 11.153612,0 10.124769,2.3733257 9.1939858,6.5792816 13.401274,9.5388098 Z"
         id="path15936"
         sodipodi:nodetypes="cscssccssccc" />
    </clipPath>
    <clipPath
       clipPathUnits="userSpaceOnUse"
       id="clipPath19120">
      <path
         style="fill:#000000;fill-opacity:1;stroke:none;stroke-width:1.36454px;stroke-linecap:butt;stroke-linejoin:miter;stroke-opacity:1"
         d="M 13.401274,9.5388097 C 14.569685,8.2331677 13.891817,5.1058741 13.891817,5.1058741 20.350389,13.505655 9.9083719,15.936476 9.9083719,15.936476 13.54082,12.983236 8.3519527,7.6916983 8.3519527,7.6916983 5.4344193,8.0101497 6.5459336,11.992274 6.5727525,12.846781 6.5861968,13.275144 4.895773,10.78282 4.895773,10.78282 3.5146953,13.61247 6.912042,16 6.912042,16 0.37564024,14.922915 -0.65961815,10.100886 0.31683931,6.9622582 0.74623225,5.5820609 2.9408592,3.6630668 2.9015366,3.9921923 2.3922669,8.2547054 4.340155,7.3807212 4.4033411,7.2446234 5.0071357,3.5838376 5.6334035,0.69225977 11.153612,-9.5000001e-8 10.124769,2.3733256 9.1939858,6.5792815 13.401274,9.5388097 Z"
         id="path19122"
         sodipodi:nodetypes="cscssccssccc" />
    </clipPath>
    <clipPath
       clipPathUnits="userSpaceOnUse"
       id="clipPath19124">
      <path
         style="fill:#000000;fill-opacity:1;stroke:none;stroke-width:1.36454px;stroke-linecap:butt;stroke-linejoin:miter;stroke-opacity:1"
         d="M 13.401274,9.5388098 C 14.569685,8.2331678 13.891817,5.1058742 13.891817,5.1058742 20.350389,13.505655 9.9083719,15.936476 9.9083719,15.936476 13.54082,12.983236 8.3519527,7.6916984 8.3519527,7.6916984 5.4344193,8.0101498 6.5459336,11.992274 6.5727525,12.846781 6.5861968,13.275144 4.895773,10.78282 4.895773,10.78282 3.5146953,13.61247 6.912042,16 6.912042,16 0.37564024,14.922915 -0.65961815,10.100886 0.31683931,6.9622583 0.74623225,5.582061 2.9408592,3.6630669 2.9015366,3.9921924 2.3922669,8.2547055 4.340155,7.3807213 4.4033411,7.2446235 5.0071357,3.5838377 5.6334035,0.69225987 11.153612,0 10.124769,2.3733257 9.1939858,6.5792816 13.401274,9.5388098 Z"
         id="path19126"
         sodipodi:nodetypes="cscssccssccc" />
    </clipPath>
  </defs>
  <g
     inkscape:groupmode="layer"
     id="layer1"
     inkscape:label="Layer 1"
     style="display:inline">
    <path
       id="rect3454"
       style="fill:#ffeedb;stroke-width:1.52182;paint-order:stroke markers fill"
       d="m 5.5368876,15.038825 c -0.1390166,0 0.6680358,0.735643 1.3751544,0.961175 1.5834518,0.505035 1.9090874,0.299763 2.9963299,-0.06352 0.06594,-0.05979 1.0982401,-0.427322 1.1593241,-0.488352 0.131601,-0.131478 0.25421,-0.264577 0.364114,-0.401322 0.10991,-0.136747 0.208302,-0.275893 0.29767,-0.41727 0.08936,-0.141375 0.169203,-0.285185 0.2392,-0.430556 0.07,-0.145375 0.128933,-0.292453 0.180727,-0.441191 0.05179,-0.148734 0.09549,-0.300355 0.130226,-0.45182 0.03474,-0.151465 0.06087,-0.303574 0.07973,-0.457135 0.01886,-0.153562 0.03041,-0.307429 0.03455,-0.462451 0.0041,-0.155024 0.0015,-0.311917 -0.008,-0.467767 -0.0094,-0.155851 -0.02603,-0.311721 -0.04785,-0.467765 -0.0218,-0.156047 -0.04936,-0.312162 -0.0824,-0.467767 -0.03303,-0.155609 -0.0712,-0.310575 -0.114278,-0.465111 -0.0431,-0.154533 -0.09153,-0.306965 -0.14352,-0.459793 C 11.94585,9.9053512 11.89014,9.754188 11.830406,9.6037012 11.770681,9.4532144 11.708004,9.3020512 11.641704,9.154539 11.575407,9.0070255 11.506103,8.8625709 11.4344,8.7186662 11.291049,8.4308553 11.138063,8.1510485 10.97999,7.8814692 10.821917,7.6118863 10.659697,7.3516721 10.496278,7.1053962 10.33286,6.8591216 10.169361,6.626965 10.009907,6.4090626 9.8504527,6.1911587 9.6936369,5.9875541 9.5474555,5.8030915 9.4012742,5.6186301 9.2644169,5.4520399 9.1408176,5.3060898 9.0172183,5.1601386 8.9082786,5.0363719 8.8165702,4.9340021 8.6331532,4.7292624 8.5215582,4.6150703 8.5215582,4.6150703 8.3974922,4.628678 8.2789876,4.6478922 8.1654177,4.6708893 8.0518473,4.6938864 7.9446691,4.7213877 7.8411702,4.7532843 7.737671,4.7851673 7.6373529,4.8220443 7.5435005,4.8622552 7.4496478,4.9024662 7.3623546,4.9445005 7.277724,4.9924815 7.1930932,5.0404611 7.111701,5.0941178 7.0358673,5.1492891 6.960034,5.2044699 6.8880496,5.2628867 6.8205883,5.3247027 6.7531265,5.3865091 6.6914003,5.450833 6.6318869,5.5187194 6.5723734,5.5865949 6.5164387,5.6579499 6.4644478,5.7313407 6.4124567,5.8047274 6.3631639,5.878918 6.3182707,5.9572498 c -0.044893,0.07834 -0.086695,0.1591456 -0.1249151,0.2418575 -0.038219,0.082708 -0.071682,0.1686192 -0.1036531,0.2551453 -0.03197,0.086518 -0.061559,0.1760002 -0.087706,0.2657759 -0.052293,0.1795532 -0.093368,0.3636444 -0.1249151,0.5528155 -0.031546,0.1891707 -0.054906,0.382458 -0.069102,0.5767354 -0.014197,0.1942767 -0.018359,0.3898392 -0.018604,0.5847091 -2.445e-4,0.1948699 0.00563,0.3884417 0.015947,0.5793912 0.010315,0.1909508 0.025059,0.3782698 0.042524,0.5607893 0.017466,0.1825182 0.037246,0.3619773 0.058471,0.531553 0.042449,0.339149 0.087819,0.646 0.1249151,0.906297 0.037096,0.2603 0.06454,0.473911 0.069102,0.619261 5.718e-4,0.01822 -0.0015,0.03184 -0.00532,0.04252 -0.00381,0.01061 -0.00803,0.01768 -0.015947,0.02127 -0.015842,0.0072 -0.041185,-1.29e-4 -0.071759,-0.0186 C 5.9767345,11.65829 5.9413895,11.62694 5.8983402,11.5864 5.8552939,11.545851 5.8054364,11.49655 5.7521666,11.437556 5.6456271,11.319563 5.5219419,11.169282 5.3880527,10.999022 5.2541636,10.828764 5.1113221,10.637302 4.9681259,10.443549 4.6817333,10.056045 4.3941356,9.6520795 4.1787695,9.3432337 3.9634034,9.0343893 3.8199712,8.8223138 3.8199712,8.8223138 3.7612415,8.9426472 3.7068744,9.0620376 3.6605053,9.1811109 c -0.046368,0.1190679 -0.084912,0.2384855 -0.1196,0.3561409 -0.034687,0.1176527 -0.06402,0.2320898 -0.087706,0.3481668 -0.023686,0.1160744 -0.042451,0.2338314 -0.055814,0.3481664 -0.013363,0.114333 -0.02286,0.227762 -0.026577,0.340194 -0.00372,0.112441 -0.00259,0.221853 0.00265,0.332221 0.00525,0.110373 0.015702,0.221419 0.029235,0.329564 0.01354,0.108141 0.032015,0.213175 0.053155,0.318933 0.021141,0.10576 0.04369,0.210406 0.071759,0.313614 0.028069,0.103215 0.061361,0.205143 0.095679,0.305643 0.034317,0.100493 0.071739,0.200042 0.1116258,0.297671 0.039888,0.09762 0.082794,0.195101 0.1275728,0.289695 0.089558,0.18919 0.1873066,0.371413 0.2923541,0.5475 0.1050478,0.176088 0.2171157,0.345941 0.3322208,0.507635 0.1151053,0.161692 0.2337527,0.313787 0.3534828,0.459794 0.1197305,0.146003 0.2398756,0.285586 0.3587982,0.414611 0.1153475,0.12515 0.2279826,0.240192 0.3375362,0.348165 z"
       sodipodi:nodetypes="sscssssssscccccscscsssssscscsscccscsssssssssssccccsssscsssssccssssssssscs" />
    <path
       style="fill:#ff9d30;fill-opacity:1;stroke:none;stroke-width:1px;stroke-linecap:butt;stroke-linejoin:miter;stroke-opacity:1"
       d="M 11.486177,-1.9911398 -4.1488911,16.184396 17.61158,19.918729 18.003372,0.43885849 Z"
       id="path13035"
       clip-path="url(#clipPath19124)" />
    <path
       style="fill:#ffde35;fill-opacity:1;stroke:none;stroke-width:1px;stroke-linecap:butt;stroke-linejoin:miter;stroke-opacity:1"
       d="M 11.611584,5.6943851 C 10.789365,15.749997 15.297452,15.05049 16.183424,18.095805 L 19.882118,4.7654902 13.033129,2.7159756 Z"
       id="path16953"
       sodipodi:nodetypes="ccccc"
       clip-path="url(#clipPath19120)" />
    <path
       style="fill:#f4702e;fill-opacity:1;stroke:none;stroke-width:1px;stroke-linecap:butt;stroke-linejoin:miter;stroke-opacity:1"
       d="M 12.422036,0 C 14.812766,-4.4269293 5.5689859,5.8845395 4.3926275,9.9922967 3.7174701,12.349897 4.5362583,15.124719 5.2666959,17.297298 7.8169654,24.8827 -9.6562366,1.6875243 -9.6562366,1.6875243 l 19.8452956,-4.08125 z"
       id="path11262"
       clip-path="url(#clipPath15934)"
       sodipodi:nodetypes="casccc" />
  </g>
</svg>
