<?xml version="1.0" encoding="UTF-8" standalone="no"?>
<svg
   viewBox="0 0 16 16"
   version="1.1"
   id="svg46"
   sodipodi:docname="E003.svg"
   inkscape:export-filename="/mnt/data/Files/Projects/Programming/InfDev/Skydale/Icons/E003.png"
   inkscape:export-xdpi="96"
   inkscape:export-ydpi="96"
   width="16"
   height="16"
   inkscape:version="1.1.1 (3bf5ae0d25, 2021-09-20, custom)"
   xmlns:inkscape="http://www.inkscape.org/namespaces/inkscape"
   xmlns:sodipodi="http://sodipodi.sourceforge.net/DTD/sodipodi-0.dtd"
   xmlns="http://www.w3.org/2000/svg"
   xmlns:svg="http://www.w3.org/2000/svg">
  <defs
     id="defs50" />
  <sodipodi:namedview
     id="namedview48"
     pagecolor="#505050"
     bordercolor="#eeeeee"
     borderopacity="1"
     inkscape:pageshadow="0"
     inkscape:pageopacity="0"
     inkscape:pagecheckerboard="0"
     showgrid="false"
     inkscape:snap-object-midpoints="true"
     inkscape:snap-center="true"
     inkscape:snap-text-baseline="true"
     inkscape:snap-page="true"
     width="16px"
     inkscape:snap-midpoints="true"
     inkscape:snap-smooth-nodes="true"
     inkscape:snap-intersection-paths="true"
     inkscape:object-paths="true"
     inkscape:snap-bbox="true"
     inkscape:bbox-paths="true"
     inkscape:bbox-nodes="true"
     inkscape:snap-bbox-edge-midpoints="true"
     inkscape:snap-bbox-midpoints="true"
     inkscape:snap-nodes="false"
     inkscape:snap-others="false"
     inkscape:zoom="14.09375"
     inkscape:cx="2.5543237"
     inkscape:cy="6.7760532"
     inkscape:window-width="1920"
     inkscape:window-height="1011"
     inkscape:window-x="0"
     inkscape:window-y="0"
     inkscape:window-maximized="1"
     inkscape:current-layer="svg46" />
  <path
     fill="#ccd6dd"
     d="M 10.774285,12.888889 12.888889,10.774286 3.1617129,1.047111 H 1.0471094 v 2.1146034 z"
     id="path2"
     style="stroke-width:0.422921" />
  <path
     fill="#9aaab4"
     d="m 1.0471094,1.047111 v 2.1146034 l 9.7271756,9.7271746 1.057301,-1.057302 z"
     id="path4"
     style="stroke-width:0.422921" />
  <path
     fill="#d99e82"
     d="m 14.85511,14.581334 c 0.126223,-0.126222 0.203555,-0.278222 0.236,-0.430221 l -2.329777,-2.753335 -0.311555,-0.312 c -0.250667,-0.250666 -0.69778,-0.21022 -0.999111,0.09111 l -0.272889,0.272 c -0.300889,0.300889 -0.341334,0.748 -0.09067,0.998666 l 0.329333,0.329328 2.733334,2.313333 c 0.153334,-0.03199 0.305778,-0.109776 0.432888,-0.236443 z"
     id="path6"
     style="stroke-width:0.444445" />
  <path
     d="m 14.85511,14.581334 c 0.126223,-0.126222 0.203555,-0.278222 0.236,-0.430221 l -0.596444,-0.704891 -0.327556,1.637334 c 0.147111,-0.03422 0.293778,-0.108 0.415555,-0.230221 z m -1.47111,-2.447111 -0.394667,1.973778 0.56,0.473777 0.364445,-1.822222 z m -0.622667,-0.736445 -0.311555,-0.312 c -0.04267,-0.04267 -0.09244,-0.07379 -0.14489,-0.09956 l -0.434665,2.174223 0.559999,0.473776 0.425333,-2.125777 z m -1.067112,-0.394666 c -0.08666,0.04222 -0.169778,0.100002 -0.243554,0.174222 l -0.272889,0.271556 c -0.112889,0.112889 -0.188889,0.246223 -0.227113,0.382222 -0.06311,0.226667 -0.02045,0.46 0.136447,0.616444 l 0.264888,0.264889 0.342221,-1.709333 c 0,-4.44e-4 0,-4.44e-4 0,0 z"
     fill="#bf6952"
     id="path8"
     style="stroke-width:0.444445" />
  <circle
     fill="#8a4633"
     cx="14.777778"
     cy="14.777778"
     r="1.2222223"
     id="circle10"
     style="stroke-width:0.444445" />
  <path
     fill="#ffac33"
     d="m 13.16711,9.9217793 c 0.179557,0.1795547 0.179557,0.4706657 0,0.6497767 l -2.707554,2.707556 c -0.179556,0.179556 -0.4702231,0.179556 -0.6497784,0 -0.1795558,-0.179556 -0.1795558,-0.470223 0,-0.649778 L 12.517333,9.9217793 c 0.178666,-0.179556 0.470222,-0.179556 0.649777,0 z"
     id="path12"
     style="stroke-width:0.444445" />
  <circle
     fill="#ffac33"
     cx="9.8097782"
     cy="13.278667"
     r="0.77777773"
     id="circle14"
     style="stroke-width:0.444445" />
  <circle
     fill="#ffac33"
     cx="13.167109"
     cy="9.9213343"
     r="0.77777773"
     id="circle16"
     style="stroke-width:0.444445" />
  <circle
     fill="#ffcc4d"
     cx="9.8097782"
     cy="13.278667"
     r="0.44444442"
     id="circle18"
     style="stroke-width:0.444445" />
  <circle
     fill="#ffcc4d"
     cx="13.167109"
     cy="9.9213343"
     r="0.44444442"
     id="circle20"
     style="stroke-width:0.444445" />
  <path
     fill="#ffac33"
     d="m 15.068,13.04089 c 0.132444,0.132444 0.132444,0.347111 0,0.479111 l -1.54489,1.544444 c -0.132444,0.132445 -0.346667,0.132445 -0.47911,0 -0.132445,-0.132444 -0.132445,-0.346666 0,-0.47911 l 1.544889,-1.544445 c 0.131999,-0.132445 0.346666,-0.132445 0.479111,0 z"
     id="path22"
     style="stroke-width:0.444445" />
  <path
     fill="#ccd6dd"
     d="M 5.2257143,12.888889 3.111111,10.774286 12.838288,1.047111 h 2.114602 v 2.1146034 z"
     id="path24"
     style="stroke-width:0.422921" />
  <path
     fill="#9aaab4"
     d="M 14.95289,1.047111 V 3.1617144 L 5.2257143,12.888889 4.1684127,11.831587 Z"
     id="path26"
     style="stroke-width:0.422921" />
  <path
     fill="#d99e82"
     d="M 1.1448888,14.581334 C 1.0186666,14.455112 0.9413333,14.303112 0.90888885,14.151113 l 2.32977755,-2.753335 0.3115557,-0.312 c 0.2506666,-0.250666 0.6977778,-0.21022 0.9991111,0.09111 l 0.2724443,0.272 c 0.3008889,0.300891 0.3413334,0.748002 0.090667,0.998668 l -0.3293332,0.329332 -2.7333332,2.313333 c -0.1533337,-0.032 -0.3057783,-0.109775 -0.4328893,-0.236442 z"
     id="path28"
     style="stroke-width:0.444445" />
  <path
     d="M 1.1448888,14.581334 C 1.0186666,14.455112 0.9413333,14.303112 0.90888885,14.151113 l 0.59644445,-0.704891 0.3275556,1.637334 c -0.1471113,-0.03422 -0.2937779,-0.108 -0.4155557,-0.230221 z m 1.4711111,-2.447111 0.3946666,1.973778 -0.56,0.473777 -0.3644444,-1.822222 z m 0.6226665,-0.736445 0.3115557,-0.312 c 0.042667,-0.04267 0.092443,-0.07379 0.1448888,-0.09956 l 0.4346667,2.174223 -0.56,0.473776 -0.4253332,-2.125777 z m 1.0671112,-0.394666 c 0.086667,0.04222 0.1697778,0.100002 0.2435556,0.174222 l 0.2724443,0.272 c 0.1128888,0.11289 0.188889,0.246222 0.2271112,0.382221 0.06311,0.226669 0.020444,0.460001 -0.1364445,0.616445 L 4.6475554,12.71289 4.3057776,11.003112 c 0,-4.44e-4 0,-4.44e-4 0,0 z"
     fill="#bf6952"
     id="path30"
     style="stroke-width:0.444445" />
  <circle
     fill="#8a4633"
     cx="1.2222223"
     cy="14.777778"
     r="1.2222223"
     id="circle32"
     style="stroke-width:0.444445" />
  <path
     fill="#ffac33"
     d="m 2.8328887,9.9217793 c -0.1795555,0.1795547 -0.1795555,0.4706657 0,0.6497767 l 2.7075554,2.707556 c 0.1795557,0.179556 0.4702222,0.179556 0.6497778,0 0.1795556,-0.179556 0.1795556,-0.470223 0,-0.649778 L 3.4826665,9.9217793 c -0.1786666,-0.179556 -0.4702222,-0.179556 -0.6497778,0 z"
     id="path34"
     style="stroke-width:0.444445" />
  <circle
     fill="#ffac33"
     cx="6.1902223"
     cy="13.278667"
     r="0.77777773"
     id="circle36"
     style="stroke-width:0.444445" />
  <circle
     fill="#ffac33"
     cx="2.8328888"
     cy="9.9213343"
     r="0.77777773"
     id="circle38"
     style="stroke-width:0.444445" />
  <circle
     fill="#ffcc4d"
     cx="6.1902223"
     cy="13.278667"
     r="0.44444442"
     id="circle40"
     style="stroke-width:0.444445" />
  <circle
     fill="#ffcc4d"
     cx="2.8328888"
     cy="9.9213343"
     r="0.44444442"
     id="circle42"
     style="stroke-width:0.444445" />
  <path
     fill="#ffac33"
     d="m 0.93199997,13.04089 c -0.13244444,0.132444 -0.13244444,0.347111 0,0.479111 l 1.54488873,1.544444 c 0.1324445,0.132445 0.3466668,0.132445 0.4791111,0 0.1324445,-0.132444 0.1324445,-0.346666 0,-0.47911 L 1.411111,13.04089 c -0.132,-0.132445 -0.3466666,-0.132445 -0.47911103,0 z"
     id="path44"
     style="stroke-width:0.444445" />
</svg>
