<?xml version="1.0" encoding="UTF-8" standalone="no"?>
<svg
   viewBox="0 0 16 16"
   version="1.1"
   id="svg46"
   sodipodi:docname="E004.svg"
   inkscape:export-filename="/mnt/data/Files/Projects/Programming/InfDev/Skydale/Icons/E004.png"
   inkscape:export-xdpi="96"
   inkscape:export-ydpi="96"
   width="16"
   height="16"
   inkscape:version="1.1.1 (3bf5ae0d25, 2021-09-20, custom)"
   xmlns:inkscape="http://www.inkscape.org/namespaces/inkscape"
   xmlns:sodipodi="http://sodipodi.sourceforge.net/DTD/sodipodi-0.dtd"
   xmlns:xlink="http://www.w3.org/1999/xlink"
   xmlns="http://www.w3.org/2000/svg"
   xmlns:svg="http://www.w3.org/2000/svg">
  <defs
     id="defs50">
    <linearGradient
       inkscape:collect="always"
       id="linearGradient16368">
      <stop
         style="stop-color:#e79898;stop-opacity:1;"
         offset="0"
         id="stop16364" />
      <stop
         style="stop-color:#e79898;stop-opacity:0;"
         offset="1"
         id="stop16366" />
    </linearGradient>
    <linearGradient
       inkscape:collect="always"
       xlink:href="#linearGradient16368"
       id="linearGradient16370"
       x1="14.669067"
       y1="0.73529309"
       x2="9.2050257"
       y2="6.2025404"
       gradientUnits="userSpaceOnUse"
       gradientTransform="matrix(1.0657299,0,0,1.0654236,0.36673674,-0.78339866)" />
  </defs>
  <sodipodi:namedview
     id="namedview48"
     pagecolor="#505050"
     bordercolor="#eeeeee"
     borderopacity="1"
     inkscape:pageshadow="0"
     inkscape:pageopacity="0"
     inkscape:pagecheckerboard="0"
     showgrid="false"
     inkscape:snap-object-midpoints="true"
     inkscape:snap-center="true"
     inkscape:snap-text-baseline="true"
     inkscape:snap-page="true"
     width="16px"
     inkscape:snap-midpoints="true"
     inkscape:snap-smooth-nodes="true"
     inkscape:snap-intersection-paths="true"
     inkscape:object-paths="true"
     inkscape:snap-bbox="true"
     inkscape:bbox-paths="true"
     inkscape:bbox-nodes="true"
     inkscape:snap-bbox-edge-midpoints="true"
     inkscape:snap-bbox-midpoints="true"
     inkscape:snap-nodes="true"
     inkscape:snap-others="true"
     inkscape:zoom="32"
     inkscape:cx="5.3796199"
     inkscape:cy="5.98724"
     inkscape:window-width="1920"
     inkscape:window-height="1011"
     inkscape:window-x="0"
     inkscape:window-y="0"
     inkscape:window-maximized="1"
     inkscape:current-layer="svg46"
     inkscape:rotation="1" />
  <path
     fill="#ccd6dd"
     d="M 5.6334575,11.649869 4.3536153,10.363563 14.72016,0 H 16 v 1.2863062 z"
     id="path24"
     style="stroke-width:0.450655"
     sodipodi:nodetypes="cccccc" />
  <path
     fill="#9aaab4"
     d="M 16,0 V 1.2863062 L 5.6334575,11.649869 4.5066596,11.490036 Z"
     id="path26"
     style="stroke-width:0.450655"
     sodipodi:nodetypes="ccccc" />
  <path
     fill="#d99e82"
     d="M 1.7202752,14.016377 C 1.5905148,13.890772 1.5110122,13.739519 1.477658,13.588264 l 2.3951039,-2.739838 0.3202914,-0.310472 c 0.2576952,-0.249436 0.7173432,-0.209193 1.027126,0.09067 l 0.2800833,0.270666 c 0.3093256,0.299419 0.3509044,0.744337 0.093207,0.993775 L 5.254903,12.220776 2.4449284,14.522769 C 2.2872966,14.490926 2.1305773,14.413523 1.9999023,14.287481 Z"
     id="path28"
     style="display:inline;fill:#d9cecd;fill-opacity:1;stroke-width:0.449527" />
  <path
     style="fill:#757575;fill-opacity:1;stroke:none;stroke-width:1.6755px;stroke-linecap:butt;stroke-linejoin:miter;stroke-opacity:1"
     d="M 2.162658,14.522769 C 2.224147,12.098549 2.5687218,9.362695 5.686032,10.846268 L 4.2782959,9.4389353 C 1.7052932,9.6768984 1.0068047,11.704627 1.264601,14.462207 Z"
     id="path21656"
     sodipodi:nodetypes="ccccc" />
  <ellipse
     fill="#8a4633"
     cx="1.4776582"
     cy="14.522767"
     id="circle32"
     style="fill:#3c3c3c;fill-opacity:1;stroke-width:0.537253"
     rx="1.4776582"
     ry="1.4772334" />
  <path
     fill="#ffac33"
     d="m 3.4249423,8.6535862 c -0.2170814,0.217018 -0.2170814,0.5688676 0,0.7853491 l 3.2734151,3.2724767 c 0.2170816,0.217019 0.5684952,0.217019 0.7855767,0 0.2170815,-0.217021 0.2170815,-0.568334 0,-0.785352 L 4.210519,8.6535862 c -0.2160067,-0.2170195 -0.5684954,-0.2170195 -0.7855767,0 z"
     id="path34"
     style="fill:#ababab;fill-opacity:1;stroke-width:0.537253" />
  <path
     style="fill:url(#linearGradient16370);fill-opacity:1;stroke:none;stroke-width:1.06558px;stroke-linecap:butt;stroke-linejoin:miter;stroke-opacity:1"
     d="M 14.72016,0 8.9896277,5.728883 11.536547,5.7484761 16,1.2863062 V 0 Z"
     id="path2062"
     sodipodi:nodetypes="cccccc" />
</svg>
