<?xml version="1.0" encoding="UTF-8" standalone="no"?>
<!-- Created with Inkscape (http://www.inkscape.org/) -->

<svg
   width="1920"
   height="1080"
   viewBox="0 0 1920 1080"
   version="1.1"
   id="svg5"
   inkscape:version="1.1.1 (3bf5ae0d25, 2021-09-20, custom)"
   sodipodi:docname="background.svg"
   xmlns:inkscape="http://www.inkscape.org/namespaces/inkscape"
   xmlns:sodipodi="http://sodipodi.sourceforge.net/DTD/sodipodi-0.dtd"
   xmlns="http://www.w3.org/2000/svg"
   xmlns:svg="http://www.w3.org/2000/svg">
  <sodipodi:namedview
     id="namedview7"
     pagecolor="#505050"
     bordercolor="#eeeeee"
     borderopacity="1"
     inkscape:pageshadow="0"
     inkscape:pageopacity="0"
     inkscape:pagecheckerboard="0"
     inkscape:document-units="px"
     showgrid="false"
     inkscape:zoom="0.34140625"
     inkscape:cx="812.81464"
     inkscape:cy="411.53318"
     inkscape:window-width="1920"
     inkscape:window-height="1011"
     inkscape:window-x="0"
     inkscape:window-y="0"
     inkscape:window-maximized="1"
     inkscape:current-layer="layer1" />
  <defs
     id="defs2" />
  <g
     inkscape:label="Layer 1"
     inkscape:groupmode="layer"
     id="layer1">
    <path
       style="fill:#67b74f;fill-opacity:1;stroke:none;stroke-width:1.20168px;stroke-linecap:butt;stroke-linejoin:miter;stroke-opacity:1"
       d="m 566.11429,367.97279 c 18.37891,3.57791 182.78339,425.98719 182.78339,425.98719 L 1133.7265,185.89119 898.12876,-33.362824 781.06902,260.55133 648.97821,-39.803764 409.12691,234.94804 Z"
       id="path856" />
    <path
       style="fill:#7db76d;fill-opacity:1;stroke:none;stroke-width:1.20168px;stroke-linecap:butt;stroke-linejoin:miter;stroke-opacity:1"
       d="M 1143.7854,17.675896 987.08197,282.79492 1276.6868,651.20645 1543.722,227.4859 1415.3137,-15.790404 1345.9819,247.72667 1244.6138,69.093906 l -35.765,99.529484 z"
       id="path1881" />
    <path
       style="fill:#71b77f;fill-opacity:1;stroke:none;stroke-width:1.1888px;stroke-linecap:butt;stroke-linejoin:miter;stroke-opacity:1"
       d="M 198.9766,179.20575 302.58365,6.4418458 551.64347,296.491 671.08315,148.5783 753.87958,325.86281 396.18989,705.00126 Z"
       id="path2928" />
    <path
       style="fill:#538146;fill-opacity:1;stroke:none;stroke-width:1.20168px;stroke-linecap:butt;stroke-linejoin:miter;stroke-opacity:1"
       d="M 606.78138,244.63566 710.06415,59.01852 888.96133,296.92159 1047.3559,78.28577 1148.7666,442.47008 836.17555,854.80642 Z"
       id="path4627" />
    <path
       style="fill:#4c6744;fill-opacity:1;stroke:none;stroke-width:1.20168px;stroke-linecap:butt;stroke-linejoin:miter;stroke-opacity:1"
       d="M 434.742,373.97868 601.41809,138.39832 663.06354,459.77249 775.70573,154.31399 872.92039,476.48527 605.34441,883.65859 Z"
       id="path7401" />
    <path
       style="fill:#538146;fill-opacity:1;stroke:none;stroke-width:1.20168px;stroke-linecap:butt;stroke-linejoin:miter;stroke-opacity:1"
       d="M -63.76361,221.7781 39.51916,36.16096 218.41628,274.06403 376.81098,55.42821 478.2217,419.61252 165.63056,831.94878 Z"
       id="path4627-1-2" />
    <path
       style="fill:#67b74f;fill-opacity:1;stroke:none;stroke-width:1.20168px;stroke-linecap:butt;stroke-linejoin:miter;stroke-opacity:1"
       d="m 1502.9691,380.75143 c 18.379,3.5779 182.7835,425.98721 182.7835,425.98721 L 2070.5815,198.66983 1834.9837,-20.584194 1717.9239,273.32997 1585.8331,-27.025134 1345.9819,247.72667 Z"
       id="path856-3" />
    <path
       style="fill:#71b77f;fill-opacity:1;stroke:none;stroke-width:1.1888px;stroke-linecap:butt;stroke-linejoin:miter;stroke-opacity:1"
       d="m 1030.1194,358.65509 103.6071,-172.7639 249.0598,290.04915 119.4398,-147.9127 82.7964,177.28451 -357.6897,379.13839 z"
       id="path2928-7" />
    <path
       style="fill:#538146;fill-opacity:1;stroke:none;stroke-width:1.20168px;stroke-linecap:butt;stroke-linejoin:miter;stroke-opacity:1"
       d="m 1314.2067,363.01575 103.2827,-185.61714 178.8971,237.90306 158.3948,-218.63581 101.4106,364.18431 -312.5911,412.33634 z"
       id="path4627-5" />
    <path
       style="fill:#4c6744;fill-opacity:1;stroke:none;stroke-width:1.20168px;stroke-linecap:butt;stroke-linejoin:miter;stroke-opacity:1"
       d="m 1235.1372,550.0755 166.6761,-235.58035 61.6455,321.37417 112.6422,-305.4585 97.2146,322.17128 -267.576,407.1733 z"
       id="path7401-3" />
    <path
       style="fill:#67b74f;fill-opacity:1;stroke:none;stroke-width:1.20168px;stroke-linecap:butt;stroke-linejoin:miter;stroke-opacity:1"
       d="m 113.44743,493.45852 c 18.37891,3.57791 182.78338,425.98721 182.78338,425.98721 L 681.0597,311.37692 445.46189,92.122906 328.40215,386.03706 196.31134,85.681966 -43.539954,360.43377 Z"
       id="path856-5" />
    <path
       style="fill:#7db76d;fill-opacity:1;stroke:none;stroke-width:1.20168px;stroke-linecap:butt;stroke-linejoin:miter;stroke-opacity:1"
       d="M 650.36555,296.42717 493.66212,561.54618 783.26704,929.95773 1050.3022,506.23716 921.89397,262.96087 852.56221,526.47793 751.19413,347.84518 715.42906,447.37465 Z"
       id="path1881-62" />
    <path
       style="fill:#71b77f;fill-opacity:1;stroke:none;stroke-width:1.1888px;stroke-linecap:butt;stroke-linejoin:miter;stroke-opacity:1"
       d="M -253.69027,304.69148 -150.08323,131.92758 98.976606,421.97673 218.41628,274.06403 301.21271,451.34854 -56.476974,830.48699 Z"
       id="path2928-9" />
    <path
       style="fill:#538146;fill-opacity:1;stroke:none;stroke-width:1.20168px;stroke-linecap:butt;stroke-linejoin:miter;stroke-opacity:1"
       d="M 331.45923,559.59582 434.742,373.97868 613.63912,611.88175 772.03382,393.24593 873.44454,757.43024 560.8534,1169.7665 Z"
       id="path4627-1" />
    <path
       style="fill:#4c6744;fill-opacity:1;stroke:none;stroke-width:1.20168px;stroke-linecap:butt;stroke-linejoin:miter;stroke-opacity:1"
       d="M -12.561574,605.70175 154.11451,370.12139 215.75996,691.49557 328.40215,386.03706 425.61681,708.20834 158.04083,1115.3816 Z"
       id="path7401-2" />
    <path
       style="fill:#67b74f;fill-opacity:1;stroke:none;stroke-width:1.20168px;stroke-linecap:butt;stroke-linejoin:miter;stroke-opacity:1"
       d="m 913.62887,683.1577 c 18.3791,3.5779 182.78363,425.9871 182.78363,425.9871 L 1481.2413,501.0761 1245.6435,281.82209 1128.5838,575.73624 996.49297,275.38115 756.6416,550.13294 Z"
       id="path856-3-7" />
    <path
       style="fill:#7db76d;fill-opacity:1;stroke:none;stroke-width:1.20168px;stroke-linecap:butt;stroke-linejoin:miter;stroke-opacity:1"
       d="m 1398.3953,484.92183 -156.7035,265.11902 289.6048,368.41135 267.0352,-423.72037 -128.4083,-243.27629 -69.3316,263.51706 -101.3682,-178.63276 -35.7649,99.52948 z"
       id="path1881-6-0" />
    <path
       style="fill:#71b77f;fill-opacity:1;stroke:none;stroke-width:1.1888px;stroke-linecap:butt;stroke-linejoin:miter;stroke-opacity:1"
       d="m 668.42683,566.00983 103.60699,-172.7639 249.05988,290.04915 119.4398,-147.9127 82.7963,177.28451 -357.68972,379.13841 z"
       id="path2928-7-9" />
    <path
       style="fill:#71b77f;fill-opacity:1;stroke:none;stroke-width:1.1888px;stroke-linecap:butt;stroke-linejoin:miter;stroke-opacity:1"
       d="m 1713.03,292.28419 103.607,-172.7639 249.0599,290.04915 119.4398,-147.9127 82.7963,177.28451 -357.6897,379.13837 z"
       id="path2928-7-9-0" />
    <path
       style="fill:#7db76d;fill-opacity:1;stroke:none;stroke-width:1.20168px;stroke-linecap:butt;stroke-linejoin:miter;stroke-opacity:1"
       d="m 1799.0532,232.13612 -156.7035,265.11902 289.6049,368.41147 267.0352,-423.72049 -128.4083,-243.27629 -69.3316,263.51706 -101.3683,-178.63276 -35.7649,99.52948 z"
       id="path1881-6" />
    <path
       style="fill:#538146;fill-opacity:1;stroke:none;stroke-width:1.20168px;stroke-linecap:butt;stroke-linejoin:miter;stroke-opacity:1"
       d="m 1625.1224,575.91933 103.2826,-185.61714 178.8972,237.90307 158.3947,-218.63582 101.4106,364.18434 -312.591,412.33642 z"
       id="path4627-5-3" />
    <path
       style="fill:#4c6744;fill-opacity:1;stroke:none;stroke-width:1.20168px;stroke-linecap:butt;stroke-linejoin:miter;stroke-opacity:1"
       d="m 973.243,582.68043 166.6761,-235.58035 61.6454,321.37417 112.6422,-305.4585 97.2147,322.17128 -267.576,407.17327 z"
       id="path7401-3-6" />
  </g>
</svg>
