<?xml version="1.0" encoding="UTF-8" standalone="no"?>
<svg
   id="圖層_1"
   data-name="圖層 1"
   viewBox="0 0 554.15 171.1"
   version="1.1"
   sodipodi:docname="sky.svg"
   inkscape:version="1.1.1 (3bf5ae0d25, 2021-09-20, custom)"
   xmlns:inkscape="http://www.inkscape.org/namespaces/inkscape"
   xmlns:sodipodi="http://sodipodi.sourceforge.net/DTD/sodipodi-0.dtd"
   xmlns="http://www.w3.org/2000/svg"
   xmlns:svg="http://www.w3.org/2000/svg"
   xmlns:rdf="http://www.w3.org/1999/02/22-rdf-syntax-ns#"
   xmlns:cc="http://creativecommons.org/ns#"
   xmlns:dc="http://purl.org/dc/elements/1.1/">
  <sodipodi:namedview
     id="namedview23"
     pagecolor="#505050"
     bordercolor="#eeeeee"
     borderopacity="1"
     inkscape:pageshadow="0"
     inkscape:pageopacity="0"
     inkscape:pagecheckerboard="0"
     showgrid="false"
     inkscape:zoom="0.29572317"
     inkscape:cx="-441.29109"
     inkscape:cy="11.835393"
     inkscape:window-width="1920"
     inkscape:window-height="1011"
     inkscape:window-x="0"
     inkscape:window-y="0"
     inkscape:window-maximized="1"
     inkscape:current-layer="圖層_1" />
  <defs
     id="defs4">
    <style
       id="style2">.cls-1{fill:#231815;}</style>
  </defs>
  <title
     id="title6">Skydale</title>
  <path
     class="cls-1"
     d="m 122.44,111.52 c 1.12,-1.12 4.5,-3.62 0.88,-8.5 -1.52,-2 -4.59,-6.38 -17,-7.87 -4.29,-0.52 -12.54,-1.78 -17,-2.25 -10.53,-1.1 -26.6,-2.48 -34,-4.62 -12.5,-3.62 -12.37,-18.1 -11.55,-24.12 0.82,-6.02 2.4,-10.9 4.74,-14.66 q 5.6,-9.3 23,-18.74 17.4,-9.44 40.48,-13.79 c 9.21,-1.74 16.47,-2.43 21.75,-1.91 7.43,0.72 8.76,5.11 8.76,5.11 1.24,2.49 0.95,8.63 0.13,11.5 -0.82,2.87 -7,8.84 -10.49,11 a 83.48,83.48 0 0 0 -9.68,6.4 c -2.69,2.1 -10.82,5.17 -9,2.53 a 33.89,33.89 0 0 1 7.3,-7.39 q 4.75,-3.78 4.61,-4.55 -0.23,-1.25 -6.09,-0.14 a 162.42,162.42 0 0 0 -32.22,9.35 q -14.47,6 -22.18,12.83 -7.71,6.83 -6.69,12.19 c 0.42,2.24 4.57,4.77 7.14,5.24 2.57,0.47 9,1.13 13.88,1.63 8.58,0.88 16.63,1.26 23.62,2.21 a 54.92,54.92 0 0 1 23,8.49 q 7.93,5.16 9.43,13.13 a 25.74,25.74 0 0 1 -0.57,11.49 33.33,33.33 0 0 1 -5.82,11.58 45.21,45.21 0 0 1 -10.28,9.79 97.81,97.81 0 0 1 -13.4,7.2 158.74,158.74 0 0 1 -18,6.82 164.32,164.32 0 0 1 -18.92,4.81 q -16.79,3.17 -27.61,1.93 c -7.21,-0.83 -10.15,-4 -12,-7.67 0,0 -1.68,-4.82 0.66,-9 a 30.73,30.73 0 0 1 7.56,-9.07 28.85,28.85 0 0 1 7.77,-4.71 c 1.61,-0.65 1.29,2.4 0.5,2.76 -2.37,1.06 -4.14,3.28 -4,3.78 0.75,2.94 7.26,2.81 20.5,0.31 a 233.74,233.74 0 0 0 26.88,-6.62 235.63,235.63 0 0 0 22.38,-8.5 40,40 0 0 0 11.53,-7.97 z"
     id="path8" />
  <path
     class="cls-1"
     d="m 213.31,97.89 c 0,0 -8.22,20 -12.07,25.24 -3.85,5.24 -7.51,8.34 -10.76,9 a 14.25,14.25 0 0 1 -9,-1 27.29,27.29 0 0 1 -8.41,-6.2 q -3.44,-3.6 -8.26,-9.78 a 1.81,1.81 0 0 0 -3,0.3 q -2.81,5.6 -5.1,10.53 -2.81,6 -4,8.08 -1.19,2.08 -2.4,2.31 -2.58,0.55 -4.43,-2.5 a 31.47,31.47 0 0 1 -3.19,-9.36 67.7,67.7 0 0 1 -1.47,-17 76.56,76.56 0 0 1 2.62,-16.78 148,148 0 0 1 6.47,-18.4 q 4.21,-10 9.72,-21.19 7.61,-15.4 13.38,-25.36 a 104.19,104.19 0 0 1 10.4,-15.39 q 4.68,-5.44 8.41,-6.23 4.58,-1 5.46,3.13 c 0.5,2.36 -2.17,12.65 -11.49,29.05 -9.66,17 -23.36,34.6 -36.38,69.83 a 1.83,1.83 0 0 0 -0.07,1 l 0.69,3.25 a 1.8,1.8 0 0 0 3.31,0.55 q 15.16,-24.93 25.22,-38 10.83,-14.08 18.09,-15.63 3,-0.63 5.33,2.51 a 19.36,19.36 0 0 1 3.34,7.73 q 2,9.36 -4.34,19 -6,9.22 -19.39,22.22 a 1.82,1.82 0 0 0 0,2.63 29.14,29.14 0 0 0 5,3.86 8.19,8.19 0 0 0 6,0.78 13.13,13.13 0 0 0 6,-3.37 50.82,50.82 0 0 0 5.94,-6.56 c 1.35,-1.74 3.57,-4.78 6.54,-8.93 0.87,-1.18 1.51,-0.82 1.84,0.68 z m -36.2,9 a 75.28,75.28 0 0 0 7.45,-9.32 69.16,69.16 0 0 0 7,-12.37 q 2.67,-6.21 1.9,-9.84 -0.32,-1.53 -1.66,-1.24 -3.63,0.77 -11,9.62 a 104.09,104.09 0 0 0 -13.44,21.53 q 3.65,-0.82 9.75,1.58 z"
     id="path10" />
  <path
     class="cls-1"
     d="m 259.05,107.21 a 1.2837543,1.2837543 0 0 0 -2,-1.61 l -10.85,9.79 c -8.07,7.44 -13.22,10 -16,10 -2.54,0.07 -5.57,-1.53 -8.53,-7.28 -2.96,-5.75 -4.49,-10.81 -4.61,-15.17 a 23.22,23.22 0 0 1 1.46,-9.47 67.74,67.74 0 0 1 5.64,-10.16 133.88,133.88 0 0 1 11,-14.36 82.69,82.69 0 0 1 9.43,-9.19 q 4.11,-3.28 5.77,-3.33 2.64,-0.07 5.2,2.6 a 8.38,8.38 0 0 1 2.64,5.6 c 0,1.24 -0.5,3.46 -2.53,6 -2.26,2.87 -5.76,6.25 -9.52,10.55 -3.76,4.3 -9.23,7.79 -14.18,15.35 a 19.22,19.22 0 0 0 -2.44,4.59 v 0 c -0.49,1.06 -0.26,3 -0.24,3.82 a 2.33,2.33 0 0 0 2.71,2.57 q 2.73,-0.07 12.65,-7.27 a 162.65,162.65 0 0 0 21.42,-19.23 q 4.47,-4.71 7.4,-8.31 2.93,-3.6 5.29,-6.74 a 50.12,50.12 0 0 1 3.93,-4.75 5.06,5.06 0 0 1 2.84,-1.74 3.66,3.66 0 0 1 3.86,1.95 q 1.43,2.31 1.55,6.89 0.07,2.64 -2.17,6.65 -2.24,4.01 -8.43,13.71 -6.19,9.69 -12.31,20.06 -4.33,7.33 -8.74,15.95 a 1.28,1.28 0 0 0 2.05,1.49 l 0.11,-0.11 q 5.56,-5.72 11.75,-11.94 6.19,-6.22 10.19,-10 3.3,-3.11 8,-7.09 a 1.28,1.28 0 0 1 2.12,0.94 c 0,0 -16.24,22.82 -23,31.36 -6.76,8.54 -12.22,15.57 -16,20.75 l -6.55,9.06 q -2.54,3.49 -4.56,6.52 a 57.56,57.56 0 0 1 -3.39,4.68 c -0.92,1.1 -1.86,0.62 -2.44,0.64 -1.37,0 -2.43,-0.25 -3.58,-2.92 a 19.8,19.8 0 0 1 -1.8,-7.13 11,11 0 0 1 0.94,-5 q 6,-14.54 25.92,-48.72 z"
     id="path12" />
  <metadata
     id="metadata922">
    <rdf:RDF>
      <cc:Work
         rdf:about="">
        <dc:title>Skydale</dc:title>
      </cc:Work>
    </rdf:RDF>
  </metadata>
</svg>
